<svg xmlns="http://www.w3.org/2000/svg" viewBox="0 0 21.53 15.8"><g id="Layer_2" data-name="Layer 2"><g id="Layer_1-2" data-name="Layer 1"><path d="M2.65,1.22a11.5,11.5,0,0,1-1.79,0A2.6,2.6,0,0,1,0,.64C.28.45.53.12.84.08a8,8,0,0,1,2.35,0A1.62,1.62,0,0,1,4.29,1c.57,2.63,1,5.26,1.53,7.9.15.77.27,1.55.42,2.39H18.41l1.37-7c-.65,0-1.17-.05-1.69-.05-3.22,0-6.43,0-9.64,0A4,4,0,0,1,7.17,3.7a3.9,3.9,0,0,1,1.29-.55c3.95,0,7.9,0,11.86,0,1,0,1.31.28,1.18.93-.49,2.47-1,4.93-1.43,7.4-.11.64-.46,1-1.49,1-4.15,0-8.3,0-12.45,0-.87,0-1.33-.15-1.45-.84C4.15,8.58,3.54,5.61,3,2.64,2.87,2.2,2.77,1.77,2.65,1.22Z"/><path d="M6.6,15.75C6,15.31,5.38,15,5.45,14.87c.16-.32.66-.57,1-.84.38.25.9.47,1.09.78C7.64,15,7.09,15.29,6.6,15.75Z"/><path d="M16.32,15.8c-.5-.53-1-.82-.92-1s.62-.51,1-.75c.36.26.86.49,1,.81C17.45,15,16.89,15.3,16.32,15.8Z"/></g></g></svg>