<svg xmlns="http://www.w3.org/2000/svg" viewBox="0 0 22.02 20.86"><defs><style>.cls-1{fill:#fff;}</style></defs><g id="Layer_2" data-name="Layer 2"><g id="Layer_1-2" data-name="Layer 1"><path d="M15.48,15.3a37,37,0,0,1-3.94,1.88,8.83,8.83,0,0,1-9.85-3.24,8.66,8.66,0,0,1,0-10.23A9,9,0,0,1,11.51.37a8.7,8.7,0,0,1,6.3,8.23,11,11,0,0,1-1,4.16,1.48,1.48,0,0,0,.42,2c1.53,1.44,3.05,2.9,4.46,4.45.33.35.24,1.08.34,1.63-.57-.11-1.32,0-1.66-.36C18.63,18.78,17,17,15.48,15.3Zm-6.62.35a6.93,6.93,0,0,0,7-6.72A6.9,6.9,0,0,0,9.08,2,6.91,6.91,0,0,0,2,8.78,6.92,6.92,0,0,0,8.86,15.65Z"/><path class="cls-1" d="M8.86,15.65A6.92,6.92,0,0,1,2,8.78,6.91,6.91,0,0,1,9.08,2a6.9,6.9,0,0,1,6.81,6.94A6.93,6.93,0,0,1,8.86,15.65Z"/></g></g></svg>